<svg xmlns="http://www.w3.org/2000/svg" width="17.56mm" height="13.53mm" viewBox="0 0 49.76 38.37">
  <g>
    <path d="M366.18,408.19v4.86a12,12,0,0,0-3.5.27c-.35.19-.53.7-.53,1.56v1h4v5H363.9v25.71h-9.57V420.85h-2v-5h2a25.67,25.67,0,0,1,.21-4.14,3.5,3.5,0,0,1,1-1.86,5.51,5.51,0,0,1,2.36-1.25,19.17,19.17,0,0,1,4.72-.43Z" transform="translate(-352.36 -408.19)" fill="#1d1d1b"/>
    <path d="M377.46,415.11l-.17,3a7.69,7.69,0,0,1,2.65-2.67,7,7,0,0,1,9.55,2.67,8.63,8.63,0,0,1,2.73-2.67,6.45,6.45,0,0,1,3.36-.89,6.58,6.58,0,0,1,4,1.18,5.21,5.21,0,0,1,2.05,2.9,24.49,24.49,0,0,1,.45,5.58v22.35h-9.29v-20.5a26.12,26.12,0,0,0-.27-5,1.2,1.2,0,0,0-1.27-1,1.25,1.25,0,0,0-1.31.95,23.47,23.47,0,0,0-.3,5v20.5h-9.29v-20a36.81,36.81,0,0,0-.22-5.54,1.15,1.15,0,0,0-1.25-.93,1.46,1.46,0,0,0-1.09.49,1.85,1.85,0,0,0-.49,1.18c0,.47,0,1.46,0,3v21.8H368V415.11Z" transform="translate(-352.36 -408.19)" fill="#3ba4dd"/>
  </g>
</svg>
